<svg xmlns="http://www.w3.org/2000/svg" width="74" height="59" viewBox="0 0 74 59" fill="none"><path d="M12.0495 0L33.6069 32.3584C33.5943 36.6574 33.412 40.9654 32.6863 44.7506L9.60172 9.74347V30.7318C9.75696 35.1905 10.1902 47.1506 17.3044 47.147V47.777H0.685964V47.1561C4.59055 47.0598 8.00955 44.0698 8.00955 30.6719V7.88083C7.24777 6.47749 6.42281 5.03966 5.41552 3.80153C2.74206 0.472015 1.26362 0.715283 0 0.64085V0H12.0495ZM66.1488 23.7042C60.3199 18.621 49.8697 13.8736 52.619 5.28475C53.5757 2.45629 55.9766 0.624512 58.7386 0.624512C68.6183 0.624512 71.2683 10.1047 71.9578 14.3801H72.4525V3.19336C70.6202 1.52315 57.2348 -2.28382 51.0124 1.92255C47.041 4.24631 44.938 9.10807 45.8424 13.634C48.3444 26.667 71.3387 29.3393 66.9503 44.0099C65.934 46.7894 63.701 48.3888 60.8127 48.3888C51.2651 48.3888 47.9111 39.6492 46.7883 32.2313H45.911C45.9706 36.307 45.855 40.33 45.1889 44.0553C49.8661 48.4723 67.2896 52.6696 72.3134 43.4998C75.9418 37.0023 73.6385 29.6062 66.1488 23.7042ZM31.8198 0V0.629958C35.5005 0.68079 35.9103 2.30561 36.1685 9.75073C36.21 10.9616 36.2479 12.3287 36.2966 13.8627C36.4771 20.7178 36.3237 36.4377 36.3237 36.4377C35.8742 44.2259 35.0601 54.3797 27.5307 58.1631L27.7636 59C47.9418 54.7918 42.3584 31.2238 43.1455 11.8203C43.1581 7.70473 44.2665 4.02846 47.4923 1.04932C47.9094 0.652713 48.3675 0.302151 48.8588 0.00363166L31.8198 0Z" fill="black"></path></svg>