<svg xmlns="http://www.w3.org/2000/svg" width="73" height="59" viewBox="0 0 73 59" fill="none"><path d="M11.8867 0L33.1528 32.3584C33.1403 36.6574 32.9604 40.9654 32.2446 44.7506L9.47196 9.74347V30.7318C9.62511 35.1905 10.0525 47.1506 17.0706 47.147V47.777H0.676694V47.1561C4.52852 47.0598 7.90132 44.0698 7.90132 30.6719V7.88083C7.14983 6.47749 6.33601 5.03966 5.34234 3.80153C2.705 0.472015 1.24655 0.715283 0 0.64085V0H11.8867ZM65.2549 23.7042C59.5047 18.621 49.1958 13.8736 51.9079 5.28475C52.8518 2.45629 55.2202 0.624512 57.9448 0.624512C67.691 0.624512 70.3052 10.1047 70.9854 14.3801H71.4734V3.19336C69.6659 1.52315 56.4614 -2.28382 50.323 1.92255C46.4053 4.24631 44.3307 9.10807 45.2229 13.634C47.6911 26.667 70.3746 29.3393 66.0456 44.0099C65.043 46.7894 62.8401 48.3888 59.9909 48.3888C50.5724 48.3888 47.2637 39.6492 46.156 32.2313H45.2906C45.3493 36.307 45.2354 40.33 44.5783 44.0553C49.1923 48.4723 66.3803 52.6696 71.3362 43.4998C74.9156 37.0023 72.6433 29.6062 65.2549 23.7042ZM31.3898 0V0.629958C35.0208 0.68079 35.425 2.30561 35.6797 9.75073C35.7207 10.9616 35.7581 12.3287 35.8061 13.8627C35.9842 20.7178 35.8328 36.4377 35.8328 36.4377C35.3894 44.2259 34.5863 54.3797 27.1587 58.1631L27.3884 59C47.2939 54.7918 41.786 31.2238 42.5624 11.8203C42.5749 7.70473 43.6683 4.02846 46.8505 1.04932C47.262 0.652713 47.7139 0.302151 48.1986 0.00363166L31.3898 0Z" fill="#D6BA7E"></path></svg>